<?xml version="1.0" encoding="UTF-8" standalone="no"?>
<!-- Created with Inkscape (http://www.inkscape.org/) -->

<svg
  width="128"
  height="128"
  viewBox="0 0 33.866666 33.866666"
  version="1.1"
  id="svg5"
  xml:space="preserve"
  xmlns="http://www.w3.org/2000/svg"
  xmlns:svg="http://www.w3.org/2000/svg"><defs
     id="defs2"><linearGradient
       id="linearGradient4943"><stop
         style="stop-color:#000000;stop-opacity:1;"
         offset="0"
         id="stop4941" /></linearGradient></defs>
  <g
    id="layer1"><ellipse
       style="fill:#8ccaf7;fill-opacity:1;stroke-width:0.270087"
       id="path310"
       ry="13.887409"
       rx="16.874563"
       cy="13.961149"
       cx="16.930233" />
    <path
      style="fill:#8ccaf7;fill-opacity:1;stroke-width:0.264583"
      d="m 33.804796,33.952587 c 0,0 -9.475642,-0.697442 -14.2554,-6.272331 -4.77976,-5.574889 8.257373,-3.101345 8.257373,-3.101345 0,0 3.479485,10.961528 5.998027,9.373676 z"
      id="path1431"/>
    <path
      style="fill:#8ccaf7;fill-opacity:1;stroke-width:0;stroke:none;stroke-opacity:0;stroke-dasharray:none"
      d="m 116.59545,126.45999 c -9.41687,-2.01643 -16.947665,-4.56669 -24.222291,-8.20275 -6.344957,-3.17138 -10.958861,-6.38931 -15.640743,-10.90851 l -2.916143,-2.8148 -3.79065,0.319 c -6.74153,0.56735 -15.125556,0.0214 -21.99158,-1.43213 C 26.15006,98.788082 8.6662681,84.599464 2.6375468,66.580192 1.2496821,62.431997 0.6688163,59.132189 0.49297968,54.397243 0.18944232,46.223556 1.6425575,39.823703 5.5110755,32.296393 7.7434482,27.952674 10.219779,24.483311 13.684912,20.844772 24.187732,9.8163613 38.267512,3.0340135 54.97627,0.95438038 60.774959,0.23265455 70.10014,0.42264653 76.185947,1.386508 c 9.055345,1.4341725 18.12865,4.7576244 25.881573,9.480135 7.25827,4.421202 14.03713,10.969947 18.35799,17.734824 1.63627,2.561786 3.8787,7.222013 4.80381,9.983289 3.78877,11.308716 3.0399,22.724826 -2.19979,33.534733 -3.30679,6.822161 -8.7458,13.518014 -14.72838,18.131803 -1.12287,0.865959 -2.34138,1.821442 -2.70781,2.123296 l -0.66624,0.548825 1.48934,4.240894 c 4.61571,13.143193 10.00506,24.121353 14.141,28.805313 l 1.14795,1.30007 -0.77593,-0.0239 c -0.42676,-0.0131 -2.37706,-0.36675 -4.33401,-0.78579 z"
      id="path4262"
      transform="scale(0.26458333)"/></g></svg>
