<svg xmlns="http://www.w3.org/2000/svg" width="70.567" height="72" viewBox="0 0 70.567 72">
  <g id="googleicon" data-name="googleicon" transform="translate(-1375.971 -964.086)">
    <g id="Group_43" data-name="Group 43" transform="translate(1375.971 964.086)">
      <path id="Path_7" data-name="Path 7" d="M6719.7,516.949a19.394,19.394,0,0,1,13.819,5.491l10.1-10.1c-5.924-5.82-14.148-9.37-24.119-9.37a35.983,35.983,0,0,0-32.121,19.791L6699.1,531.9A21.808,21.808,0,0,1,6719.7,516.949Z" transform="translate(-6683.524 -502.966)" fill="#f72515"/>
      <path id="Path_8" data-name="Path 8" d="M6648.6,792.143a21.99,21.99,0,0,1,1.138-7L6638.022,776a36.055,36.055,0,0,0-.044,32.363l11.757-9.2A22.27,22.27,0,0,1,6648.6,792.143Z" transform="translate(-6634.165 -756.209)" fill="#f9b200"/>
      <path id="Path_9" data-name="Path 9" d="M6719,1110.576a21.648,21.648,0,0,1-20.474-14.972l-11.757,9.2a35.977,35.977,0,0,0,32.165,19.846c9.722,0,17.9-3.129,23.864-8.663l-11.352-8.825A22.567,22.567,0,0,1,6719,1110.576Z" transform="translate(-6682.961 -1052.645)" fill="#00a53f"/>
      <path id="Path_10" data-name="Path 10" d="M7164.274,905.765v-.028h-33.928v14.028h19.688a16.56,16.56,0,0,1-7.164,11.289l11.351,8.825c6.812-6.323,10.725-15.787,10.725-27.315A43.986,43.986,0,0,0,7164.274,905.765Z" transform="translate(-7094.379 -876.541)" fill="#1d7cf4"/>
    </g>
  </g>
</svg>
