<svg xmlns="http://www.w3.org/2000/svg" width="71.424" height="72.689" viewBox="0 0 71.424 72.689">
  <g id="googleicon" data-name="googleicon" transform="translate(-1706.904 -497.686)">
    <path id="Path_1" data-name="Path 1" d="M144.815,166.41l4.76,10.137,7.985.283a20.549,20.549,0,0,1,32.423-9.9l11.683-10.794a36.36,36.36,0,0,0-56.851,10.279Z" transform="translate(1566.081 351.045)" fill="#313131" fill-rule="evenodd"/>
    <path id="Path_2" data-name="Path 2" d="M120.533,316.694l9.834-4.488,3.275-5.286a20.855,20.855,0,0,1,.081-12.048l-12.745-10.42a36.386,36.386,0,0,0-.445,32.241Z" transform="translate(1589.918 233.002)" fill="#626262" fill-rule="evenodd"/>
    <path id="Path_3" data-name="Path 3" d="M185.6,452.485a20.556,20.556,0,0,1-30.775-11.411l-13.109,9.774a36.346,36.346,0,0,0,56.488,11.9l-6.721-8.955Z" transform="translate(1568.736 98.849)" fill="#8f8f8f" fill-rule="evenodd"/>
    <path id="Path_4" data-name="Path 4" d="M385.838,386.138m-9.208-15.191a20.691,20.691,0,0,1-7.995,9.662l12.6,10.259a36.3,36.3,0,0,0,4.6-4.73,37.563,37.563,0,0,0,6.044-28.977H355.406v13.786Z" transform="translate(1385.7 170.724)" fill="#c9c9c9" fill-rule="evenodd"/>
  </g>
</svg>
